<mxfile host="app.diagrams.net" modified="2024-05-15T14:05:56.078Z" agent="Mozilla/5.0 (Windows NT 10.0; Win64; x64) AppleWebKit/537.36 (KHTML, like Gecko) Chrome/124.0.0.0 Safari/537.36" version="24.4.0" etag="bOZzR3RwRVpa4VcUTpOH" type="github">
  <diagram name="Halaman-1" id="evkAGeguhSbs2HSoYYHC">
    <mxGraphModel>
      <root>
        <mxCell id="0" />
        <mxCell id="1" parent="0" />
      </root>
    </mxGraphModel>
  </diagram>
</mxfile>
